<?xml version="1.0" encoding="UTF-8" standalone="no"?>
<!-- Created with Inkscape (http://www.inkscape.org/) -->

<svg
   xmlns:osb="http://www.openswatchbook.org/uri/2009/osb"
   xmlns:dc="http://purl.org/dc/elements/1.1/"
   xmlns:cc="http://creativecommons.org/ns#"
   xmlns:rdf="http://www.w3.org/1999/02/22-rdf-syntax-ns#"
   xmlns:svg="http://www.w3.org/2000/svg"
   xmlns="http://www.w3.org/2000/svg"
   xmlns:xlink="http://www.w3.org/1999/xlink"
   xmlns:sodipodi="http://sodipodi.sourceforge.net/DTD/sodipodi-0.dtd"
   xmlns:inkscape="http://www.inkscape.org/namespaces/inkscape"
   width="48px"
   height="48px"
   id="svg5365"
   version="1.1"
   inkscape:version="0.48.4 r9939"
   sodipodi:docname="ic_launcher.svg">
  <defs
     id="defs5367">
    <linearGradient
       inkscape:collect="always"
       id="linearGradient7992">
      <stop
         style="stop-color:#000000;stop-opacity:1;"
         offset="0"
         id="stop7994" />
      <stop
         style="stop-color:#000000;stop-opacity:0;"
         offset="1"
         id="stop7996" />
    </linearGradient>
    <linearGradient
       inkscape:collect="always"
       id="linearGradient7980"
       osb:paint="gradient">
      <stop
         style="stop-color:#33b5e5;stop-opacity:1;"
         offset="0"
         id="stop7982" />
      <stop
         style="stop-color:#33b5e5;stop-opacity:0;"
         offset="1"
         id="stop7984" />
    </linearGradient>
    <linearGradient
       inkscape:collect="always"
       id="linearGradient6534"
       osb:paint="gradient">
      <stop
         style="stop-color:#33b5e5;stop-opacity:1;"
         offset="0"
         id="stop6536" />
      <stop
         style="stop-color:#33b5e5;stop-opacity:0;"
         offset="1"
         id="stop6538" />
    </linearGradient>
    <linearGradient
       inkscape:collect="always"
       id="linearGradient6018">
      <stop
         style="stop-color:#000000;stop-opacity:1;"
         offset="0"
         id="stop6020" />
      <stop
         style="stop-color:#666666;stop-opacity:1"
         offset="1"
         id="stop6022" />
    </linearGradient>
    <linearGradient
       gradientUnits="userSpaceOnUse"
       gradientTransform="scale(1.0453251,0.95664022)"
       y2="171.71278"
       x2="33.324681"
       y1="171.71278"
       x1="18.318417"
       id="imagebot_45"
       xlink:href="#imagebot_54" />
    <linearGradient
       id="imagebot_54">
      <stop
         stop-color="#fff3f3"
         id="imagebot_83"
         offset="0" />
      <stop
         stop-color="#fff3f3"
         stop-opacity="0"
         id="imagebot_82"
         offset="1" />
    </linearGradient>
    <linearGradient
       y2="262.96933"
       x2="236.5473"
       y1="200.46933"
       x1="193.164"
       gradientUnits="userSpaceOnUse"
       id="imagebot_41"
       xlink:href="#imagebot_53" />
    <linearGradient
       id="imagebot_53">
      <stop
         stop-color="#ffffff"
         id="imagebot_78"
         offset="0" />
      <stop
         stop-color="#ffffff"
         stop-opacity="0"
         id="imagebot_77"
         offset="1" />
    </linearGradient>
    <clipPath
       clipPathUnits="userSpaceOnUse"
       id="imagebot_39">
      <path
         style="fill:#333333;fill-rule:nonzero;stroke-linejoin:round;stroke-miterlimit:4;stroke-dashoffset:0"
         inkscape:connector-curvature="0"
         stroke-miterlimit="4"
         d="m 331.047,281.969 a 93.6917,93.6917 0 1 1 -187.383,0 93.6917,93.6917 0 1 1 187.383,0 z"
         id="imagebot_79" />
    </clipPath>
    <filter
       color-interpolation-filters="sRGB"
       id="imagebot_40">
      <feGaussianBlur
         id="imagebot_80"
         stdDeviation="1.87383" />
    </filter>
    <linearGradient
       gradientUnits="userSpaceOnUse"
       gradientTransform="scale(1.3511316,0.74012038)"
       y2="210.89516"
       x2="25.285701"
       y1="195.12703"
       x1="11.875573"
       id="imagebot_36"
       xlink:href="#imagebot_52" />
    <linearGradient
       id="imagebot_52">
      <stop
         stop-color="#ffffff"
         id="imagebot_75"
         offset="0" />
      <stop
         stop-color="#ffffff"
         stop-opacity="0"
         id="imagebot_74"
         offset="1" />
    </linearGradient>
    <linearGradient
       y2="251.96933"
       x2="232.49094"
       y1="341.46933"
       x1="286.72037"
       gradientUnits="userSpaceOnUse"
       id="imagebot_33"
       xlink:href="#imagebot_51" />
    <linearGradient
       id="imagebot_51">
      <stop
         stop-color="#000000"
         id="imagebot_72"
         offset="0" />
      <stop
         stop-color="#000000"
         stop-opacity="0"
         id="imagebot_71"
         offset="1" />
    </linearGradient>
    <linearGradient
       y2="295.28302"
       x2="244.03407"
       y1="353.96933"
       x1="302.72037"
       gradientUnits="userSpaceOnUse"
       id="imagebot_31"
       xlink:href="#imagebot_50" />
    <linearGradient
       id="imagebot_50">
      <stop
         stop-color="#ffffff"
         id="imagebot_68"
         offset="0" />
      <stop
         stop-color="#ffffff"
         stop-opacity="0"
         id="imagebot_67"
         offset="1" />
    </linearGradient>
    <filter
       color-interpolation-filters="sRGB"
       id="imagebot_30">
      <feGaussianBlur
         id="imagebot_69"
         stdDeviation="2.46406" />
    </filter>
    <linearGradient
       gradientUnits="userSpaceOnUse"
       gradientTransform="scale(1.609567,0.62128509)"
       y2="391.92239"
       x2="135.35823"
       y1="391.92239"
       x1="178.80465"
       id="imagebot_14"
       xlink:href="#imagebot_49" />
    <linearGradient
       id="imagebot_49">
      <stop
         stop-color="#aa0000"
         id="imagebot_63"
         offset="0" />
      <stop
         stop-color="#aa0000"
         stop-opacity="0"
         id="imagebot_62"
         offset="1" />
    </linearGradient>
    <linearGradient
       gradientUnits="userSpaceOnUse"
       gradientTransform="scale(1.3993238,0.7146309)"
       y2="338.55468"
       x2="153.96416"
       y1="338.55468"
       x1="206.3559"
       id="imagebot_12"
       xlink:href="#imagebot_49" />
    <linearGradient
       id="linearGradient5787">
      <stop
         stop-color="#aa0000"
         id="stop5789"
         offset="0" />
      <stop
         stop-color="#aa0000"
         stop-opacity="0"
         id="stop5791"
         offset="1" />
    </linearGradient>
    <linearGradient
       gradientUnits="userSpaceOnUse"
       gradientTransform="scale(1.7636401,0.56700912)"
       y2="437.83477"
       x2="124.08226"
       y1="437.83477"
       x1="163.00884"
       id="imagebot_10"
       xlink:href="#imagebot_49" />
    <linearGradient
       id="linearGradient5794">
      <stop
         stop-color="#aa0000"
         id="stop5796"
         offset="0" />
      <stop
         stop-color="#aa0000"
         stop-opacity="0"
         id="stop5798"
         offset="1" />
    </linearGradient>
    <linearGradient
       gradientUnits="userSpaceOnUse"
       gradientTransform="scale(1.2525235,0.79838824)"
       y2="319.76045"
       x2="35.313106"
       y1="232.76795"
       x1="35.313106"
       id="imagebot_7"
       xlink:href="#imagebot_48" />
    <linearGradient
       id="imagebot_48">
      <stop
         stop-color="#ffffff"
         id="imagebot_60"
         offset="0" />
      <stop
         stop-color="#ffffff"
         stop-opacity="0"
         id="imagebot_59"
         offset="1" />
    </linearGradient>
    <linearGradient
       gradientUnits="userSpaceOnUse"
       gradientTransform="scale(1.0413831,0.96026138)"
       y2="183.28726"
       x2="84.849363"
       y1="169.75378"
       x1="69.249689"
       id="imagebot_5"
       xlink:href="#imagebot_47" />
    <linearGradient
       id="imagebot_47">
      <stop
         stop-color="#ffffff"
         id="imagebot_57"
         offset="0" />
      <stop
         stop-color="#ffffff"
         stop-opacity="0"
         id="imagebot_56"
         offset="1" />
    </linearGradient>
    <linearGradient
       inkscape:collect="always"
       xlink:href="#linearGradient6018"
       id="linearGradient6024"
       x1="1.7898309"
       y1="43.816948"
       x2="35.6339"
       y2="11.437288"
       gradientUnits="userSpaceOnUse"
       gradientTransform="translate(1.3016946,-0.86101704)" />
    <linearGradient
       inkscape:collect="always"
       xlink:href="#linearGradient7980"
       id="linearGradient7990"
       x1="1.464406"
       y1="24.081354"
       x2="4.3932209"
       y2="-8.9491539"
       gradientUnits="userSpaceOnUse"
       gradientTransform="matrix(1.0101684,0,0,0.99989366,0.00416346,0.00257815)" />
    <radialGradient
       inkscape:collect="always"
       xlink:href="#linearGradient7992"
       id="radialGradient7998"
       cx="23.59322"
       cy="24.244066"
       fx="23.59322"
       fy="24.244066"
       r="23.755932"
       gradientTransform="matrix(0.27600231,-0.84499571,0.57513734,0.18405596,3.381837,39.717971)"
       gradientUnits="userSpaceOnUse" />
  </defs>
  <sodipodi:namedview
     id="base"
     pagecolor="#ffffff"
     bordercolor="#666666"
     borderopacity="1.0"
     inkscape:pageopacity="0.0"
     inkscape:pageshadow="2"
     inkscape:zoom="6.1458333"
     inkscape:cx="7.4731317"
     inkscape:cy="24"
     inkscape:current-layer="layer1"
     showgrid="true"
     inkscape:grid-bbox="true"
     inkscape:document-units="px"
     inkscape:window-width="1148"
     inkscape:window-height="912"
     inkscape:window-x="363"
     inkscape:window-y="172"
     inkscape:window-maximized="0" />
  <metadata
     id="metadata5370">
    <rdf:RDF>
      <cc:Work
         rdf:about="">
        <dc:format>image/svg+xml</dc:format>
        <dc:type
           rdf:resource="http://purl.org/dc/dcmitype/StillImage" />
        <dc:title></dc:title>
      </cc:Work>
    </rdf:RDF>
  </metadata>
  <g
     id="layer1"
     inkscape:label="Layer 1"
     inkscape:groupmode="layer">
    <rect
       style="fill:url(#linearGradient7990);fill-opacity:1;stroke:url(#radialGradient7998);stroke-width:1.00501788"
       id="rect6012"
       width="47.99498"
       height="47.181423"
       x="-0.16020365"
       y="0.65335643"
       ry="5.0435314" />
    <path
       style="fill:url(#linearGradient6024);fill-opacity:1"
       d="m 16.193541,44.438217 c -0.08389,-0.01324 -0.18188,-0.03561 -0.217757,-0.0497 -0.03588,-0.01409 -0.131385,-0.01954 -0.212235,-0.01209 -0.08086,0.0074 -0.19951,0.004 -0.263678,-0.0078 -0.08165,-0.01489 -0.166906,-0.0075 -0.284049,0.02451 -0.126296,0.03455 -0.193014,0.03897 -0.271798,0.01807 -0.08906,-0.02365 -0.125927,-0.01911 -0.25064,0.03083 -0.139413,0.05584 -0.151996,0.05625 -0.270515,0.009 -0.141892,-0.05659 -0.157724,-0.05459 -0.291481,0.03689 -0.151005,0.103264 -0.256131,0.12296 -0.339204,0.06353 -0.06752,-0.0483 -0.07652,-0.04776 -0.237595,0.01379 -0.165628,0.0633 -0.168584,0.06339 -0.277501,0.0075 -0.109583,-0.05626 -0.110918,-0.05622 -0.291195,0.01008 -0.172983,0.06361 -0.184458,0.06449 -0.255854,0.01951 -0.129393,-0.0815 -0.474664,-0.03281 -0.572547,0.08074 -0.05189,0.06019 -0.05281,0.06019 -0.139003,-0.0024 -0.07053,-0.0512 -0.103551,-0.05842 -0.176334,-0.03851 -0.04926,0.01348 -0.167225,0.02148 -0.262143,0.0178 -0.09492,-0.0037 -0.235568,0.01053 -0.312552,0.03159 -0.136958,0.03747 -0.142734,0.03635 -0.267107,-0.04822 -0.114358,-0.07781 -0.1373,-0.08371 -0.228446,-0.05878 -0.05572,0.01524 -0.118192,0.0456 -0.138802,0.06745 -0.02837,0.03008 -0.06219,0.03647 -0.13913,0.02626 -0.124511,-0.01648 -0.323769,-0.0011 -0.6519904,0.05027 -0.146963,0.02302 -0.348575,0.0326 -0.490437,0.02334 -0.132484,-0.0087 -0.330482,-0.01247 -0.439985,-0.0085 -0.270934,0.0099 -0.778334,-0.02055 -0.848982,-0.05097 -0.0317,-0.01365 -0.09965,-0.01332 -0.151016,7.33e-4 -0.06965,0.01905 -0.116574,0.01306 -0.184624,-0.02362 -0.05019,-0.02705 -0.114438,-0.05627 -0.142798,-0.06494 -0.04322,-0.01322 -0.05963,-0.04359 -0.101469,-0.187873 -0.04091,-0.14126 -0.04543,-0.193953 -0.0247,-0.29407 0.03174,-0.15347 -0.01077,-0.203692 -0.12865,-0.151948 -0.04403,0.0193 -0.159344,0.02909 -0.278712,0.02361 -0.412594,-0.01896 -0.580113,-0.248879 -0.551211,-0.756536 0.0053,-0.09294 0.03442,-0.487724 0.06473,-0.877287 0.0303,-0.389558 0.06062,-0.88908 0.06735,-1.110045 0.0067,-0.220964 0.0386,-0.60909 0.0708,-0.862504 0.03221,-0.253414 0.07398,-0.743942 0.09283,-1.090062 0.04921,-0.903339 0.06656,-1.135543 0.114169,-1.527156 0.0233,-0.191682 0.05418,-0.557937 0.06862,-0.813903 0.01443,-0.255964 0.04096,-0.730194 0.05894,-1.053839 0.01798,-0.323643 0.05777,-0.783306 0.08844,-1.021474 0.03067,-0.238167 0.06295,-0.598745 0.07175,-0.801283 0.0276,-0.634993 0.09549,-1.483618 0.143282,-1.79118 0.02526,-0.162566 0.04543,-0.380344 0.04481,-0.483945 -0.0018,-0.293098 0.109063,-1.877647 0.158877,-2.271788 0.04892,-0.387081 0.07638,-0.840752 0.06853,-1.132126 -0.0059,-0.22069 -0.06767,-0.458795 -0.169736,-0.654902 -0.04054,-0.0778 -0.110796,-0.252641 -0.156136,-0.388483 -0.267674,-0.801861 -1.103079,-1.523307 -1.920146,-1.658219 -0.07978,-0.01318 -0.28746,-0.01911 -0.461494,-0.01316 -0.289806,0.0099 -0.35626,0.02168 -0.789696,0.140144 -0.425813,0.116374 -0.491237,0.140599 -0.652575,0.241413 -0.14631,0.09142 -0.222301,0.122134 -0.412832,0.166841 l -0.233513,0.05477 -0.137133,-0.101668 c -0.07542,-0.05591 -0.198663,-0.167753 -0.27386,-0.248527 -0.393686,-0.422862 -0.425389,-0.643022 -0.175226,-1.216898 0.241262,-0.553477 0.450259,-0.86694 0.767633,-1.151327 0.316982,-0.284037 0.54473,-0.45201 0.804285,-0.593196 0.138156,-0.07516 0.313716,-0.19227 0.390133,-0.260273 0.07642,-0.068 0.224654,-0.193675 0.329407,-0.279275 0.234525,-0.191634 0.282722,-0.262523 0.400505,-0.58907 0.169694,-0.470467 0.174955,-0.677924 0.03719,-1.465349 -0.07018,-0.401166 -0.07949,-0.435121 -0.200778,-0.733434 -0.13164,-0.323742 -0.141444,-0.368368 -0.143927,-0.654781 -0.0018,-0.208689 -0.02215,-0.287883 -0.104517,-0.407013 -0.04317,-0.06246 -0.103131,-0.108201 -0.186873,-0.142565 -0.06783,-0.02786 -0.189022,-0.09626 -0.269337,-0.152029 -0.106765,-0.07414 -0.174856,-0.102144 -0.25325,-0.104176 -0.05897,-0.0015 -0.16129,-0.0059 -0.227382,-0.0096 -0.126946,-0.0072 -0.548862,-0.137508 -0.839407,-0.259179 -0.09529,-0.0399 -0.284375,-0.108465 -0.420207,-0.152364 -0.135827,-0.0439 -0.277204,-0.09765 -0.314166,-0.119443 -0.08992,-0.05303 -0.234157,-0.242314 -0.26233,-0.344253 -0.04769,-0.173184 0.01426,-0.370664 0.154552,-0.49155 0.117274,-0.101056 0.412154,-0.262335 0.54663,-0.298982 0.166149,-0.04529 0.812313,-0.03609 1.038155,0.01476 0.163005,0.03669 0.197672,0.03483 0.454006,-0.02454 0.480748,-0.111325 0.564154,-0.190788 0.660123,-0.628842 0.128158,-0.584992 0.207565,-0.748885 0.47043,-0.970955 0.09279,-0.07839 0.176943,-0.181322 0.244637,-0.299228 0.05675,-0.09886 0.149728,-0.223641 0.206613,-0.277307 0.09616,-0.09072 0.131807,-0.106316 0.507111,-0.221827 0.495808,-0.152611 0.504015,-0.159781 0.584561,-0.511899 0.09538,-0.416938 0.211043,-0.529542 0.664812,-0.647226 0.48621,-0.126109 0.692573,-0.07629 0.955837,0.230725 0.175979,0.205218 0.243087,0.240258 0.445338,0.232517 0.08764,-0.0034 1.237287,-0.302737 3.7194714,-0.968578 4.120056,-1.105208 3.680791,-1.017631 4.038981,-0.805125 0.177586,0.105363 0.233049,0.125512 0.335694,0.121942 0.08555,-0.003 0.872314,-0.211513 2.585641,-0.685372 l 2.462671,-0.681134 0.269587,-0.26851 c 0.446761,-0.4449738 0.399669,-0.4223428 1.568184,-0.7536688 0.999915,-0.283586 2.975471,-0.781518 3.347014,-0.843707 0.108639,-0.01816 0.533816,-0.137318 0.944859,-0.264792 0.991929,-0.307538 2.661835,-0.762562 5.117419,-1.3943891 C 35.537771,6.2298037 38.032731,5.53937 38.10917,5.4700648 38.138,5.4439328 38.241129,5.2690829 38.338367,5.0815044 38.608863,4.5596998 38.81861,4.3647431 39.225924,4.2565375 c 0.349832,-0.092898 0.707737,-0.074661 0.978855,0.049968 0.106717,0.049061 0.325022,0.2438759 0.480615,0.4289098 0.167392,0.1990521 0.348855,0.3308846 0.593019,0.4307937 0.228892,0.093657 0.345898,0.1998803 0.48686,0.4419872 0.0984,0.1689987 0.147424,0.2107538 0.40085,0.3412839 0.153687,0.079169 0.285532,0.2377736 0.379145,0.456107 0.09743,0.227229 0.278583,0.9081 0.394461,1.4823561 0.126508,0.627284 0.12659,0.628116 0.09306,0.944874 -0.02965,0.280147 -0.07914,0.386798 -0.230619,0.496983 -0.102441,0.07452 -0.117399,0.109849 -0.08189,0.193427 0.01965,0.04608 0.02304,0.09371 0.0095,0.126724 -0.03556,0.08623 0.06217,0.5421608 0.156943,0.7322158 0.103181,0.20691 0.327359,0.955429 0.416116,1.389419 0.09193,0.449548 0.08195,0.604975 -0.05508,0.85593 -0.05204,0.0953 -0.128857,0.215798 -0.170722,0.26777 -0.05098,0.06328 -0.08323,0.141075 -0.09764,0.235485 -0.01184,0.07754 -0.03986,0.1616 -0.06225,0.186788 -0.0326,0.03664 -0.804043,0.257436 -3.856033,1.103606 -3.17338,0.879884 -3.827467,1.067416 -3.887625,1.114892 -0.03978,0.03139 -0.129868,0.149617 -0.200199,0.262726 -0.220877,0.355232 0.270247,0.189495 -4.370341,1.474814 l -4.06848,1.126856 -0.171031,0.109892 c -0.09407,0.06044 -0.239877,0.17449 -0.324022,0.253443 -0.180167,0.169063 -0.243471,0.257327 -0.627305,0.874707 -0.03395,0.0546 -0.06786,0.137516 -0.07535,0.184277 -0.0075,0.04676 -0.03271,0.141944 -0.05602,0.211521 -0.04057,0.121114 -0.05375,0.325006 -0.055,0.851034 l -5.7e-4,0.240963 0.132926,0.396673 c 0.108346,0.323304 0.147016,0.413807 0.2091,0.489314 0.08429,0.102516 0.17464,0.378844 0.157004,0.480221 -0.0053,0.03094 -3.16e-4,0.128838 0.01126,0.217514 0.02717,0.208158 0.01982,0.333238 -0.04381,0.745004 -0.0823,0.532512 -0.101049,0.607292 -0.217717,0.868166 -0.06043,0.135128 -0.15343,0.342503 -0.20666,0.460835 -0.08966,0.199325 -0.275726,0.466204 -0.336679,0.482912 -0.01434,0.0039 -0.05796,0.062 -0.09682,0.129028 -0.05297,0.09136 -0.12675,0.16262 -0.294897,0.284799 -0.123339,0.08962 -0.257302,0.199852 -0.2977,0.244954 -0.05876,0.06561 -0.131269,0.104127 -0.362575,0.192615 -0.159022,0.06083 -0.351802,0.141168 -0.428407,0.178515 -0.08013,0.03907 -0.219032,0.08224 -0.327068,0.101641 -0.336596,0.06039 -0.615984,0.101386 -0.758043,0.111197 -0.07663,0.0053 -0.229029,0.0341 -0.338678,0.06401 -0.180266,0.04918 -0.208328,0.05015 -0.292958,0.01012 -0.08811,-0.04168 -0.103671,-0.04054 -0.265503,0.01918 -0.483547,0.178473 -2.524019,0.760525 -2.722073,0.776489 -0.107013,0.0086 -0.120862,0.01651 -0.168248,0.09564 -0.0874,0.145994 -0.27491,0.284464 -0.409325,0.302293 -0.124447,0.0165 -0.160589,0.05832 -0.15987,0.184952 1.87e-4,0.03328 -0.03322,0.105669 -0.07423,0.160873 -0.227232,0.30586 -0.457306,0.981465 -0.479378,1.407677 -0.01996,0.385243 -0.03734,0.483849 -0.09763,0.55372 -0.048,0.05563 -0.05695,0.102095 -0.05698,0.295732 -2e-6,0.158864 0.01516,0.28523 0.0492,0.409669 0.03932,0.143754 0.04442,0.203905 0.02531,0.299098 -0.01316,0.06553 -0.02402,0.167705 -0.02413,0.22703 -1.09e-4,0.05933 -0.01481,0.146152 -0.03265,0.192937 -0.03609,0.09465 -0.02919,0.14071 0.03679,0.245038 0.03868,0.06116 0.04123,0.08841 0.01835,0.196784 -0.01461,0.06918 -0.02072,0.147386 -0.01359,0.173782 0.0071,0.0264 0.0025,0.08722 -0.01017,0.135182 -0.01755,0.06609 -0.01154,0.129746 0.02479,0.262972 0.03795,0.13915 0.04316,0.203457 0.02513,0.308597 -0.01276,0.07427 -0.01138,0.174795 0.0031,0.228035 0.01736,0.06373 0.01438,0.138492 -0.009,0.226072 -0.01924,0.07198 -0.02986,0.149755 -0.02359,0.172844 0.0063,0.02309 -0.0032,0.08027 -0.02113,0.127068 -0.02445,0.06399 -0.02408,0.130866 0.0015,0.269747 0.01866,0.101581 0.0351,0.266891 0.03643,0.367385 0.0013,0.100492 0.01342,0.255622 0.02691,0.344717 0.01899,0.125789 0.01467,0.185931 -0.01946,0.269057 -0.02418,0.05889 -0.03972,0.122528 -0.03455,0.141432 0.0052,0.0189 -0.01234,0.09114 -0.03889,0.160496 -0.03727,0.09732 -0.04211,0.148721 -0.02123,0.22506 0.01489,0.05442 0.01883,0.151921 0.0088,0.216673 -0.01604,0.103354 -0.0094,0.143738 0.05441,0.330468 l 0.07264,0.21274 -0.05902,0.171603 c -0.03908,0.113617 -0.05225,0.196346 -0.03899,0.244818 0.01102,0.04027 0.01188,0.125724 0.0019,0.189913 -0.01021,0.06576 -0.0032,0.201633 0.01608,0.311233 0.04704,0.267607 0.04551,0.412897 -0.0082,0.772154 -0.03078,0.205941 -0.03876,0.356575 -0.02387,0.451264 0.02432,0.154693 0.01433,0.264127 -0.03611,0.396034 -0.02736,0.07155 -0.02493,0.112968 0.01528,0.259958 0.02905,0.10618 0.04264,0.206911 0.03476,0.256407 -0.0072,0.04484 -0.0021,0.157797 0.01138,0.25099 0.01817,0.12594 0.01385,0.204531 -0.01689,0.306149 l -0.04135,0.136708 0.0983,0.334345 0.0983,0.33435 -0.07974,0.175946 c -0.10326,0.227836 -0.107794,0.265159 -0.05401,0.444502 0.04061,0.135583 0.04077,0.164964 2.55e-4,0.307348 -0.02459,0.08658 -0.0381,0.181599 -0.03002,0.21114 0.0081,0.02954 0.0019,0.162716 -0.01368,0.295943 -0.0156,0.133228 -0.02013,0.272359 -0.01006,0.309174 0.01007,0.03682 0.01057,0.156418 0.0011,0.265784 -0.0237,0.273905 -0.0068,0.298858 0.282672,0.416712 0.295109,0.120166 0.3377,0.166481 0.384856,0.418529 0.04343,0.232107 0.02448,0.31506 -0.113321,0.496049 -0.123598,0.16234 -0.145206,0.172734 -0.329188,0.158402 -0.123842,-0.0096 -0.136106,-0.0062 -0.22714,0.06315 -0.07118,0.05429 -0.109198,0.06964 -0.146075,0.05902 -0.07445,-0.02146 -0.27775,0.04218 -0.374752,0.117298 -0.047,0.03638 -0.163337,0.09268 -0.258558,0.125117 -0.146642,0.05007 -0.196447,0.05529 -0.32566,0.03488 z m 7.518681,-19.144335 c 0.0792,-0.04343 0.199721,-0.108794 0.26783,-0.145215 0.155234,-0.08305 0.267637,-0.195034 0.46479,-0.463021 0.161804,-0.219942 0.350757,-0.598177 0.4189,-0.838529 0.06605,-0.232954 0.09938,-0.597892 0.08456,-0.925741 -0.01253,-0.277335 -0.02286,-0.337948 -0.09723,-0.570551 -0.08891,-0.278145 -0.267928,-0.608861 -0.451077,-0.83346 -0.278287,-0.341264 -0.899463,-0.833265 -1.196763,-0.947886 -0.05983,-0.02306 -0.189549,-0.07784 -0.288288,-0.121732 -0.362789,-0.161249 -0.620802,-0.171955 -1.149854,-0.04771 l -0.371622,0.08727 -0.09729,0.187691 c -0.06188,0.119335 -0.157883,0.249637 -0.26368,0.35781 -0.171837,0.175696 -0.227701,0.257151 -0.492486,0.718065 -0.169039,0.294249 -0.262714,0.588378 -0.323552,1.015904 -0.04363,0.306643 -0.02116,0.546958 0.08998,0.962013 0.08165,0.304914 0.102183,0.357623 0.204985,0.523428 0.258247,0.417016 0.749607,0.84894 1.147941,1.009081 0.207432,0.08339 0.332491,0.164005 0.436184,0.281158 0.134205,0.151633 0.202316,0.15761 0.646718,0.05678 0.490115,-0.111191 0.785457,-0.204237 0.969976,-0.305367 z"
       id="path5499"
       inkscape:connector-curvature="0" />
    <g
       transform="matrix(0.20694597,0,0,0.20694597,16.258518,9.631956)"
       id="imagebot_2"
       label="Layer 1">
      <g
         label="Layer 1"
         transform="translate(31.699494,-134.36509)"
         id="imagebot_3">
        <rect
           style="fill:#333333;fill-rule:nonzero;stroke-linejoin:round;stroke-miterlimit:4;stroke-dashoffset:0"
           stroke-miterlimit="4"
           height="14.01332"
           x="31.221531"
           y="156.78642"
           ry="2.6828499"
           rx="2.6828499"
           width="16.348881"
           id="imagebot_46" />
        <rect
           style="fill:url(#imagebot_45);fill-rule:nonzero;stroke-linejoin:round;stroke-miterlimit:4;stroke-dashoffset:0"
           stroke-miterlimit="4"
           height="14.96185"
           x="31.221531"
           y="156.78642"
           ry="2.86444"
           rx="2.6828499"
           width="16.348881"
           id="imagebot_44" />
        <rect
           style="fill:#333333;fill-rule:nonzero;stroke-linejoin:round;stroke-miterlimit:4;stroke-dashoffset:0"
           stroke-miterlimit="4"
           height="13.5613"
           x="27.017481"
           y="147.42918"
           ry="6.7806501"
           rx="6.7806501"
           width="24.75692"
           id="imagebot_43" />
        <path
           style="fill:#333333;fill-rule:nonzero;stroke-linejoin:round;stroke-miterlimit:4;stroke-dashoffset:0"
           inkscape:connector-curvature="0"
           stroke-miterlimit="4"
           transform="matrix(0.7588237,0,0,0.7588237,-142.23279,23.861937)"
           d="m 333.0473,281.96933 a 93.69165,93.69165 0 1 1 -187.3833,0 93.69165,93.69165 0 1 1 187.3833,0 z"
           id="imagebot_42" />
        <path
           style="opacity:0.78333004;fill:none;stroke:url(#imagebot_41);stroke-width:3.35839009;stroke-linejoin:round;stroke-miterlimit:4;stroke-dashoffset:0;filter:url(#imagebot_40)"
           inkscape:connector-curvature="0"
           stroke-miterlimit="4"
           transform="matrix(0.7588237,0,0,0.7588237,-140.71514,23.861937)"
           clip-path="url(#imagebot_39)"
           d="m 333.0473,281.96933 a 93.69165,93.69165 0 1 1 -187.3833,0 93.69165,93.69165 0 1 1 187.3833,0 z"
           id="imagebot_38" />
        <rect
           style="fill:none;stroke:#333333;stroke-width:2.54842997;stroke-linejoin:round;stroke-miterlimit:4;stroke-dashoffset:0"
           stroke-miterlimit="4"
           height="18.684389"
           x="21.723089"
           y="134.3651"
           ry="8.8750801"
           rx="14.24688"
           width="36.434639"
           id="imagebot_37" />
        <rect
           style="fill:url(#imagebot_36);fill-rule:nonzero;stroke-linejoin:round;stroke-miterlimit:4;stroke-dashoffset:0"
           stroke-miterlimit="4"
           height="13.5613"
           x="27.017481"
           y="147.42918"
           ry="6.7806501"
           rx="6.7806501"
           width="24.75692"
           id="imagebot_35" />
        <path
           style="fill:#c8c4b7;fill-rule:nonzero;stroke-linejoin:round;stroke-miterlimit:4;stroke-dashoffset:0"
           inkscape:connector-curvature="0"
           stroke-miterlimit="4"
           transform="matrix(0.7588237,0,0,0.7588237,-142.23279,23.861937)"
           d="m 317.49094,281.96933 a 78.1353,78.1353 0 1 1 -156.27059,0 78.1353,78.1353 0 1 1 156.27059,0 z"
           id="imagebot_34" />
        <path
           style="opacity:0.62221997;fill:url(#imagebot_33);fill-rule:nonzero;stroke-linejoin:round;stroke-miterlimit:4;stroke-dashoffset:0"
           inkscape:connector-curvature="0"
           stroke-miterlimit="4"
           transform="matrix(0.7588237,0,0,0.7588237,-142.23279,23.861937)"
           d="m 317.49094,281.96933 a 78.1353,78.1353 0 1 1 -156.27059,0 78.1353,78.1353 0 1 1 156.27059,0 z"
           id="imagebot_32" />
        <path
           style="fill:none;stroke:url(#imagebot_31);stroke-width:2.51880002;stroke-linejoin:round;stroke-miterlimit:4;stroke-dashoffset:0;filter:url(#imagebot_30)"
           inkscape:connector-curvature="0"
           stroke-miterlimit="4"
           transform="matrix(0.7588237,0,0,0.7588237,-142.23279,23.861937)"
           d="m 319.49094,281.96933 a 80.1353,80.1353 0 1 1 -160.27059,0 80.1353,80.1353 0 1 1 160.27059,0 z"
           id="imagebot_29" />
        <rect
           style="fill:#1a1a1a;fill-rule:nonzero;stroke-linejoin:round;stroke-miterlimit:4;stroke-dashoffset:0"
           stroke-miterlimit="4"
           height="13.95081"
           x="35.908241"
           y="182.42552"
           ry="2.6828499"
           rx="2.6828499"
           width="6.9754"
           id="imagebot_28" />
        <rect
           style="fill:#4d4d4d;fill-rule:nonzero;stroke-linejoin:round;stroke-miterlimit:4;stroke-dashoffset:0"
           stroke-miterlimit="4"
           height="13.95081"
           x="35.908241"
           y="277.93555"
           ry="2.6828499"
           rx="2.6828499"
           width="6.9754"
           id="imagebot_27" />
        <rect
           style="fill:#4d4d4d;fill-rule:nonzero;stroke-linejoin:round;stroke-miterlimit:4;stroke-dashoffset:0"
           stroke-miterlimit="4"
           height="13.95081"
           x="-241.31462"
           y="-15.87069"
           ry="2.6828499"
           rx="2.6828499"
           width="6.9754"
           id="imagebot_26"
           transform="matrix(0,-1,1,0,0,0)" />
        <rect
           style="fill:#4d4d4d;fill-rule:nonzero;stroke-linejoin:round;stroke-miterlimit:4;stroke-dashoffset:0"
           stroke-miterlimit="4"
           height="13.95081"
           x="-241.31462"
           y="78.028954"
           ry="2.6828499"
           rx="2.6828499"
           width="6.9754"
           id="imagebot_25"
           transform="matrix(0,-1,1,0,0,0)" />
        <path
           style="fill:#000000;fill-rule:nonzero;stroke-linejoin:round;stroke-miterlimit:4;stroke-dashoffset:0"
           inkscape:connector-curvature="0"
           stroke-miterlimit="4"
           transform="matrix(0.1984779,0,0,0.1984779,-8.3213634,181.37107)"
           d="m 249.60869,284.44421 a 9.19239,9.19239 0 1 1 -18.38477,0 9.19239,9.19239 0 1 1 18.38477,0 z"
           id="imagebot_24" />
        <rect
           style="fill:#4d4d4d;fill-rule:nonzero;stroke-linejoin:round;stroke-miterlimit:4;stroke-dashoffset:0"
           stroke-miterlimit="4"
           height="6.0780101"
           x="151.65874"
           y="134.67755"
           ry="1.1688499"
           rx="0.78579003"
           width="2.0430501"
           id="imagebot_23"
           transform="matrix(0.8660253,0.5000001,-0.4999999,0.8660255,0,0)" />
        <rect
           style="fill:#4d4d4d;fill-rule:nonzero;stroke-linejoin:round;stroke-miterlimit:4;stroke-dashoffset:0"
           stroke-miterlimit="4"
           height="6.0780101"
           x="223.99994"
           y="34.014881"
           ry="1.1688499"
           rx="0.78579003"
           width="2.0430501"
           id="imagebot_22"
           transform="matrix(0.5000001,0.8660253,-0.8660255,0.4999999,0,0)" />
        <rect
           style="fill:#4d4d4d;fill-rule:nonzero;stroke-linejoin:round;stroke-miterlimit:4;stroke-dashoffset:0"
           stroke-miterlimit="4"
           height="6.0780101"
           x="-85.481087"
           y="-276.06094"
           ry="1.1688499"
           rx="0.78579003"
           width="2.0430501"
           id="imagebot_21"
           transform="matrix(0.8660253,-0.5000001,-0.4999999,-0.8660255,0,0)" />
        <rect
           style="fill:#4d4d4d;fill-rule:nonzero;stroke-linejoin:round;stroke-miterlimit:4;stroke-dashoffset:0"
           stroke-miterlimit="4"
           height="6.0780101"
           x="-186.73836"
           y="-203.12508"
           ry="1.1688499"
           rx="0.78579003"
           width="2.0430501"
           id="imagebot_20"
           transform="matrix(0.5000001,-0.8660253,-0.8660255,-0.4999999,0,0)" />
        <rect
           style="fill:#4d4d4d;fill-rule:nonzero;stroke-linejoin:round;stroke-miterlimit:4;stroke-dashoffset:0"
           stroke-miterlimit="4"
           height="6.0780101"
           x="-153.76353"
           y="-236.63806"
           ry="1.1688499"
           rx="0.78579003"
           width="2.0430501"
           id="imagebot_19"
           transform="matrix(-0.8660253,-0.5000001,0.4999999,-0.8660255,0,0)" />
        <rect
           style="fill:#4d4d4d;fill-rule:nonzero;stroke-linejoin:round;stroke-miterlimit:4;stroke-dashoffset:0"
           stroke-miterlimit="4"
           height="6.0780101"
           x="-226.16125"
           y="-134.84264"
           ry="1.1688499"
           rx="0.78579003"
           width="2.0430501"
           id="imagebot_18"
           transform="matrix(-0.5000001,-0.8660253,0.8660255,-0.4999999,0,0)" />
        <rect
           style="fill:#4d4d4d;fill-rule:nonzero;stroke-linejoin:round;stroke-miterlimit:4;stroke-dashoffset:0"
           stroke-miterlimit="4"
           height="6.0780101"
           x="83.541397"
           y="174.38644"
           ry="1.1688499"
           rx="0.78579003"
           width="2.0430501"
           id="imagebot_17"
           transform="matrix(-0.8660253,0.5000001,0.4999999,0.8660255,0,0)" />
        <rect
           style="fill:#4d4d4d;fill-rule:nonzero;stroke-linejoin:round;stroke-miterlimit:4;stroke-dashoffset:0"
           stroke-miterlimit="4"
           height="6.0780101"
           x="184.86311"
           y="102.46249"
           ry="1.1688499"
           rx="0.78579003"
           width="2.0430501"
           id="imagebot_16"
           transform="matrix(-0.5000001,0.8660253,0.8660255,0.4999999,0,0)" />
        <rect
           style="fill:#000000;fill-rule:nonzero;stroke-width:4;stroke-linejoin:round;stroke-miterlimit:4;stroke-dashoffset:0"
           stroke-miterlimit="4"
           height="51.405659"
           x="207.77982"
           ry="25.702829"
           y="69.225548"
           transform="matrix(0.6352143,0.7723359,-0.7723359,0.6352143,0,0)"
           rx="0.93422002"
           width="1.86844"
           id="imagebot_15" />
        <path
           style="fill:none;stroke:url(#imagebot_14);stroke-width:3.88674998;stroke-linecap:round;stroke-linejoin:round;stroke-miterlimit:4;stroke-dashoffset:0"
           inkscape:connector-curvature="0"
           stroke-miterlimit="4"
           id="imagebot_13"
           d="m 230.99355,204.28278 a 78.1353,78.1353 0 0 1 62.40068,21.25113"
           transform="matrix(0.491753,0,0,0.491753,-78.307903,99.167697)" />
        <path
           style="fill:none;stroke:url(#imagebot_12);stroke-width:3.88674998;stroke-linecap:round;stroke-linejoin:round;stroke-miterlimit:4;stroke-dashoffset:0"
           inkscape:connector-curvature="0"
           stroke-miterlimit="4"
           id="imagebot_11"
           d="m 247.54253,218.63464 a 63.86163,63.86163 0 0 1 34.18962,15.55875"
           transform="matrix(0.491753,0,0,0.491753,-78.307903,99.167697)" />
        <path
           style="fill:none;stroke:url(#imagebot_10);stroke-width:3.88674998;stroke-linecap:round;stroke-linejoin:round;stroke-miterlimit:4;stroke-dashoffset:0"
           inkscape:connector-curvature="0"
           stroke-miterlimit="4"
           id="imagebot_9"
           d="m 213.17088,194.15262 a 91.63742,91.63742 0 0 1 90.64595,22.68474"
           transform="matrix(0.491753,0,0,0.491753,-78.307903,99.167697)" />
        <path
           style="fill:#333333;fill-rule:evenodd;stroke-width:1px"
           inkscape:connector-curvature="0"
           id="imagebot_8"
           d="m 81.54919,173.07271 -1.65573,8.23823 c 2.27647,3.98384 9.38996,7.2437 9.38996,7.2437 l 7.54451,-3.02019 c 0,-4.69497 -11.25447,-13.80317 -15.27874,-12.46174 z" />
        <path
           style="opacity:0.52222003;fill:url(#imagebot_7);fill-rule:nonzero;stroke-linejoin:round;stroke-miterlimit:4;stroke-dashoffset:0"
           inkscape:connector-curvature="0"
           stroke-miterlimit="4"
           d="m 95.75563,237.36407 c 0,31.11057 -42.77149,5.74167 -56.35967,5.74167 -13.14471,0 -56.35967,25.3689 -56.35967,-5.74167 0,-31.11053 25.24914,-56.35966 56.35967,-56.35966 31.11054,0 56.35967,25.24913 56.35967,56.35966 z"
           id="imagebot_6" />
        <path
           style="fill:url(#imagebot_5);fill-rule:evenodd;stroke-width:1px"
           inkscape:connector-curvature="0"
           d="m 81.54919,173.07271 -1.65573,8.23823 c 2.27647,3.98384 9.38996,7.2437 9.38996,7.2437 l 7.54451,-3.02019 c 0,-4.69497 -11.25447,-13.80317 -15.27874,-12.46174 z"
           id="imagebot_4" />
      </g>
      <title
         id="title5740">Layer 1</title>
    </g>
  </g>
</svg>
